<svg height="512pt" viewBox="0 -6 512.00247 512" width="512pt" xmlns="http://www.w3.org/2000/svg"><path d="m256 491.691406c63.425781 0 132.882812-11.195312 181.46875-55.375 74.089844-67.378906 96.964844-215.183594 16.011719-286.121094-36.246094-31.761718-75.792969-57.199218-101.644531-99.246093-.011719-.019531-13.882813-22.578125-13.882813-22.578125-3.132813-7.183594-10.226563-11.824219-18.0625-11.824219s-14.925781 4.640625-18.0625 11.824219l-13.882813 22.578125-13.882812-31.792969c-3.132812-7.183594-10.226562-11.824219-18.0625-11.824219s-14.925781 4.640625-18.0625 11.824219l-13.882812 31.792969-13.882813-22.578125c-3.132813-7.183594-10.226563-11.824219-18.0625-11.824219s-14.925781 4.640625-18.0625 11.824219c0 0-13.867187 22.558594-13.882813 22.578125-25.851562 42.046875-65.394531 67.484375-101.640624 99.246093-80.957032 70.9375-58.082032 218.742188 16.011718 286.121094 48.582032 44.179688 118.039063 55.375 181.464844 55.375zm0 0" fill="#faeed0"/><path d="m104.535156 446.316406c-74.09375-67.378906-96.964844-215.179687-16.011718-286.117187 36.246093-31.765625 75.792968-57.203125 101.640624-99.25.015626-.019531 13.882813-22.578125 13.882813-22.578125 1.535156-3.515625 4.019531-6.414063 7.070313-8.464844l-.945313-1.535156c-3.136719-7.183594-10.226563-11.824219-18.0625-11.824219s-14.929687 4.640625-18.0625 11.824219c0 0-13.871094 22.558594-13.882813 22.578125-25.851562 42.046875-65.398437 67.484375-101.644531 99.246093-80.953125 70.9375-58.078125 218.742188 16.015625 286.121094 24.324219 22.121094 53.882813 35.972656 85.300782 44.289063-20.121094-8.234375-38.902344-19.375-55.300782-34.289063zm0 0" fill="#f6d8a0"/><path d="m458.40625 144.382812c-8.980469-7.871093-18.238281-15.417968-27.191406-22.71875-27.847656-22.707031-54.152344-44.152343-72.976563-74.769531-.019531-.03125-.027343-.042969-13.65625-22.214843-4.441406-9.621094-14.074219-15.804688-24.707031-15.804688-10.628906 0-20.265625 6.183594-24.703125 15.804688l-6.113281 9.9375s-8.132813-18.625-8.136719-18.636719c-9.308594-21.324219-40.582031-21.289063-49.875 0l-8.136719 18.636719-6.109375-9.9375c-4.441406-9.621094-14.074219-15.808594-24.707031-15.808594-10.628906 0-20.265625 6.1875-24.707031 15.808594-13.292969 21.621093-13.628907 22.167968-13.628907 22.167968-18.851562 30.667969-45.160156 52.117188-73.015624 74.828125-5.84375 4.765625-11.886719 9.691407-17.816407 14.679688-3.167969 2.667969-3.578125 7.398437-.910156 10.566406 2.664063 3.171875 7.398437 3.578125 10.566406.914063 5.839844-4.914063 11.839844-9.804688 17.640625-14.535157 27.59375-22.5 56.128906-45.765625 76.320313-78.605469.148437-.242187 14.214843-23.164062 14.359375-23.496093 4.222656-9.539063 18.195312-9.59375 22.378906-.003907.140625.320313 14.339844 23.460938 14.367188 23.507813 3.113281 5.074219 10.886718 4.515625 13.265624-.925781 0 0 13.863282-31.75 13.882813-31.796875 4.175781-9.570313 18.203125-9.558594 22.378906 0 0 0 13.851563 31.726562 13.878907 31.792969 2.375 5.441406 10.15625 5.984374 13.265624.929687 0 0 14.21875-23.171875 14.367188-23.507813 4.214844-9.535156 18.191406-9.589843 22.378906 0 .140625.320313 14.214844 23.257813 14.367188 23.507813 20.179687 32.824219 48.710937 56.089844 76.304687 78.585937 8.851563 7.214844 18 14.679688 26.785157 22.375 36.449218 31.941407 46.289062 75.648438 48.121093 106.695313 3.351563 56.769531-16.945312 116.878906-52.96875 156.867187-2.773437 3.078126-2.523437 7.820313.554688 10.59375 2.964843 2.671876 7.832031 2.511719 10.589843-.550781 38.617188-42.867187 60.378907-107.164062 56.800782-167.796875-2.875-48.609375-21.273438-89.097656-53.214844-117.089844zm0 0"/><path d="m50.835938 157.023438c-3.109376-2.738282-7.851563-2.429688-10.585938.679687-16.582031 18.871094-28.253906 41.902344-34.6875 68.457031-5.867188 24.230469-7.121094 51.316406-3.625 78.335938 6.964844 53.785156 32.210938 105.074218 67.535156 137.199218 23.210938 21.109376 52.917969 36.570313 88.289063 45.953126 28.839843 7.652343 60.96875 11.371093 98.222656 11.371093 76.367187 0 133.894531-15.835937 175.878906-48.410156 3.273438-2.539063 3.867188-7.25 1.328125-10.523437-2.539062-3.273438-7.25-3.867188-10.523437-1.328126-39.25 30.457032-93.773438 45.261719-166.683594 45.261719-35.4375 0-67.191406-3.65625-94.375-10.867187-33.023437-8.761719-60.628906-23.082032-82.042969-42.554688-32.773437-29.804687-56.230468-77.664062-62.75-128.027344-6.847656-52.886718 5.800782-102.078124 34.703125-134.960937 2.734375-3.113281 2.429688-7.851563-.683593-10.585937zm0 0"/><path d="m263.484375 128.714844v-54.101563c0-4.140625-3.359375-7.5-7.5-7.5s-7.5 3.359375-7.5 7.5v54.101563c0 4.140625 3.359375 7.5 7.5 7.5s7.5-3.359375 7.5-7.5zm0 0"/><path d="m363.238281 126.4375c1.554688-3.839844-.296875-8.214844-4.136719-9.769531-19.003906-7.691407-25.597656-38.179688-25.664062-38.488281-.839844-4.050782-4.804688-6.652344-8.855469-5.816407-4.058593.835938-6.667969 4.800781-5.832031 8.859375.324219 1.574219 8.25 38.636719 34.722656 49.351563 3.789063 1.535156 8.230469-.34375 9.765625-4.136719zm0 0"/><path d="m193.21875 81.222656c.835938-4.058594-1.773438-8.023437-5.828125-8.859375-4.058594-.839843-8.027344 1.769531-8.863281 5.828125-1.757813 8.527344-9.796875 32.058594-25.660156 38.480469-3.839844 1.550781-5.691407 5.925781-4.136719 9.765625 1.53125 3.785156 5.992187 5.667969 9.765625 4.140625 26.472656-10.71875 34.398437-47.78125 34.722656-49.355469zm0 0"/><path d="m157.304688 269.519531v16.5c0 4.144531 3.355468 7.5 7.5 7.5 4.140624 0 7.5-3.355469 7.5-7.5v-16.5c0-4.144531-3.359376-7.503906-7.5-7.503906-4.144532 0-7.5 3.359375-7.5 7.503906zm0 0"/><path d="m347.164062 262.015625c-4.140624 0-7.5 3.359375-7.5 7.503906v16.5c0 4.144531 3.359376 7.5 7.5 7.5 4.144532 0 7.5-3.355469 7.5-7.5v-16.5c0-4.144531-3.355468-7.503906-7.5-7.503906zm0 0"/><path d="m239.125 279.9375c-2.726562-3.121094-7.464844-3.4375-10.582031-.710938-3.121094 2.726563-3.4375 7.464844-.710938 10.582032 6.957031 7.957031 17.21875 12.523437 28.152344 12.523437s21.195313-4.566406 28.152344-12.523437c2.726562-3.117188 2.40625-7.855469-.710938-10.582032-3.121093-2.726562-7.859375-2.410156-10.585937.710938-4.105469 4.699219-10.25 7.390625-16.855469 7.390625s-12.75-2.695313-16.859375-7.390625zm0 0"/></svg>